<svg width="125" height="36" viewBox="0 0 125 36" fill="none" xmlns="http://www.w3.org/2000/svg">
<path d="M26.5439 12.2949C23.5245 12.2949 21.3613 13.2635 19.6037 15.7289C18.4771 13.5716 16.1786 12.2949 12.979 12.2949C10.5454 12.2949 7.66121 13.5276 6.53457 15.4647V12.9553H0V34.8359H6.85003V22.2446C6.85003 20.2634 8.15695 18.4585 10.5454 18.4585C12.9339 18.4585 14.1507 20.0873 14.1507 22.1565V34.8359H20.9106V22.2006C20.9106 20.2634 22.2175 18.4585 24.6511 18.4585C27.0847 18.4585 28.2113 20.0873 28.2113 22.1565V34.8359H34.8361V20.6597C34.8361 14.7163 30.7801 12.2949 26.5439 12.2949Z" fill="black"/>
<path d="M69.1727 15.5279V12.5194H62.5V34.8359H69.3997V25.092C69.3997 20.6468 71.8964 19.0303 74.6655 19.0303C75.3464 19.0303 76.0726 19.0751 76.8443 19.2547V12.5194C76.3903 12.3847 75.7094 12.2949 75.0285 12.2949C73.2129 12.2949 70.353 13.0134 69.1727 15.5279Z" fill="black"/>
<path d="M86.0667 12.2949H78.8945V34.8359H86.0667V12.2949Z" fill="black"/>
<path d="M99.032 6.14746H92.7928V9.06857C92.7928 11.1681 91.6458 12.7656 89.2602 12.7656H88.1133V18.8361H92.1505V28.5578C92.1505 33.0765 95.0407 35.8606 99.7661 35.8606C101.968 35.8606 103.115 35.3585 103.39 35.2217V29.4707C102.978 29.5619 102.289 29.6989 101.555 29.6989C100.041 29.6989 99.032 29.1967 99.032 27.3255V18.8361H103.482V12.7656H99.032V6.14746Z" fill="black"/>
<path d="M82.4258 0C79.9399 0 77.8672 2.07269 77.8672 4.61234C77.8672 7.15198 79.9399 9.22131 82.4258 9.22131C84.9118 9.22131 87.0885 7.14862 87.0885 4.61234C87.0885 2.07605 85.0158 0 82.4258 0Z" fill="black"/>
<path d="M48.6428 11.2705C42.5253 11.2705 36.8867 16.029 36.8867 23.4965C36.8867 30.9638 42.6694 35.8607 49.1651 35.8607C54.5057 35.8607 58.0617 33.175 59.5684 29.7379L53.6754 27.5365C52.9052 28.947 51.5056 29.8433 49.2622 29.8433C46.4663 29.8433 44.0454 27.9781 43.9049 25.3648H60.3084C60.3552 25.2265 60.4523 24.1522 60.4523 23.1734C60.4523 15.7094 55.9488 11.2738 48.646 11.2738M44.0488 20.7942C44.1929 19.0674 45.7096 16.8727 48.7433 16.8727C52.1584 16.8727 53.3907 19.018 53.4844 20.7942H44.0488Z" fill="black"/>
<path d="M114.211 28.8038L124.815 17.9641V12.2949H105.811V18.1909V18.327H115.625L105.531 28.7584V34.8359H124.998V28.8946V28.8038H114.211Z" fill="black"/>
</svg>
